<svg xmlns="http://www.w3.org/2000/svg" width="1024" height="1024" viewBox="0 0 1024 1024" version="1.1"><path d="M 661.500 216.682 C 605.122 221.561, 545.336 237.641, 501.857 259.620 C 444.251 288.740, 397.056 339.570, 379.971 390.895 C 369.400 422.652, 367.155 459.374, 374.096 487 C 380.552 512.695, 397.936 531.243, 420.565 536.578 C 454.680 544.621, 499.110 516.720, 526.453 470.081 C 532.259 460.177, 539.869 443.320, 543.085 433.237 C 545.110 426.891, 545.219 425.791, 543.951 424.530 C 542.257 422.845, 528.154 418.853, 512.500 415.628 C 504.916 414.065, 501.413 412.904, 501.217 411.888 C 501.047 411.004, 510.824 402.230, 525.717 389.905 C 539.348 378.624, 563.902 358.281, 580.282 344.697 C 596.662 331.114, 610.473 320, 610.973 320 C 611.473 320, 612.150 320.433, 612.477 320.962 C 612.804 321.492, 617.116 349.954, 622.060 384.212 C 627.003 418.471, 631.499 449.336, 632.051 452.801 C 633.109 459.444, 632.801 461, 630.428 461 C 629.629 461, 622.179 457.597, 613.874 453.437 C 605.568 449.277, 598.203 446.092, 597.507 446.359 C 596.812 446.626, 593.275 452.528, 589.649 459.476 C 567.523 501.867, 539.396 530.133, 501.500 548.064 C 483.561 556.552, 471.846 559.360, 439.340 562.964 C 367.429 570.937, 345.187 577.107, 316.760 596.971 C 304.030 605.866, 283.999 626.042, 276.131 637.895 C 264.321 655.685, 255.859 675.749, 249.475 701.098 C 243.087 726.467, 239.103 754.955, 238.723 778 L 238.500 791.500 280.619 791.761 C 313.957 791.967, 322.960 791.754, 323.804 790.737 C 324.390 790.030, 325.802 784.878, 326.941 779.287 C 337.768 726.163, 377.389 677.405, 432.004 649.998 C 457.275 637.317, 480.253 630.052, 522.500 621.387 C 549.851 615.778, 570.542 609.213, 587.500 600.763 C 640.157 574.527, 675.191 532.194, 690.562 476.230 C 698.721 446.527, 701.520 419.229, 700.721 377.165 C 699.927 335.424, 695.099 298.873, 685.065 258.654 C 675.930 222.037, 673.310 215.689, 667.527 216.168 C 666.412 216.261, 663.700 216.492, 661.500 216.682 M 609.500 626.130 C 593.955 632.729, 574.526 639.445, 554.559 645.123 C 516.792 655.861, 509.710 658.100, 494 664.270 C 456.278 679.084, 426.557 698.470, 403.505 723.299 C 384.682 743.571, 371.353 767.611, 367.476 788.277 L 366.776 792.006 536.638 791.753 L 706.500 791.500 706.793 782.504 C 707.125 772.287, 705.075 756.403, 701.437 741 C 692.645 703.773, 675.824 671.834, 652.974 648.977 C 640.281 636.279, 622.586 622.933, 618.638 623.079 C 617.462 623.122, 613.350 624.495, 609.500 626.130" stroke="none" fill="#04612b" fill-rule="evenodd"/><path d="M 0 512.001 L 0 1024.002 512.250 1023.751 L 1024.500 1023.500 1024.751 511.750 L 1025.002 0 512.501 0 L 0 0 0 512.001 M 0.496 512.500 C 0.496 794.100, 0.610 909.151, 0.750 768.168 C 0.890 627.186, 0.890 396.786, 0.750 256.168 C 0.610 115.551, 0.496 230.900, 0.496 512.500 M 661.500 216.682 C 605.122 221.561, 545.336 237.641, 501.857 259.620 C 444.251 288.740, 397.056 339.570, 379.971 390.895 C 369.400 422.652, 367.155 459.374, 374.096 487 C 380.552 512.695, 397.936 531.243, 420.565 536.578 C 454.680 544.621, 499.110 516.720, 526.453 470.081 C 532.259 460.177, 539.869 443.320, 543.085 433.237 C 545.110 426.891, 545.219 425.791, 543.951 424.530 C 542.257 422.845, 528.154 418.853, 512.500 415.628 C 504.916 414.065, 501.413 412.904, 501.217 411.888 C 501.047 411.004, 510.824 402.230, 525.717 389.905 C 539.348 378.624, 563.902 358.281, 580.282 344.697 C 596.662 331.114, 610.473 320, 610.973 320 C 611.473 320, 612.150 320.433, 612.477 320.962 C 612.804 321.492, 617.116 349.954, 622.060 384.212 C 627.003 418.471, 631.499 449.336, 632.051 452.801 C 633.109 459.444, 632.801 461, 630.428 461 C 629.629 461, 622.179 457.597, 613.874 453.437 C 605.568 449.277, 598.203 446.092, 597.507 446.359 C 596.812 446.626, 593.275 452.528, 589.649 459.476 C 567.523 501.867, 539.396 530.133, 501.500 548.064 C 483.561 556.552, 471.846 559.360, 439.340 562.964 C 367.429 570.937, 345.187 577.107, 316.760 596.971 C 304.030 605.866, 283.999 626.042, 276.131 637.895 C 264.321 655.685, 255.859 675.749, 249.475 701.098 C 243.087 726.467, 239.103 754.955, 238.723 778 L 238.500 791.500 280.619 791.761 C 313.957 791.967, 322.960 791.754, 323.804 790.737 C 324.390 790.030, 325.802 784.878, 326.941 779.287 C 337.768 726.163, 377.389 677.405, 432.004 649.998 C 457.275 637.317, 480.253 630.052, 522.500 621.387 C 549.851 615.778, 570.542 609.213, 587.500 600.763 C 640.157 574.527, 675.191 532.194, 690.562 476.230 C 698.721 446.527, 701.520 419.229, 700.721 377.165 C 699.927 335.424, 695.099 298.873, 685.065 258.654 C 675.930 222.037, 673.310 215.689, 667.527 216.168 C 666.412 216.261, 663.700 216.492, 661.500 216.682 M 609.500 626.130 C 593.955 632.729, 574.526 639.445, 554.559 645.123 C 516.792 655.861, 509.710 658.100, 494 664.270 C 456.278 679.084, 426.557 698.470, 403.505 723.299 C 384.682 743.571, 371.353 767.611, 367.476 788.277 L 366.776 792.006 536.638 791.753 L 706.500 791.500 706.793 782.504 C 707.125 772.287, 705.075 756.403, 701.437 741 C 692.645 703.773, 675.824 671.834, 652.974 648.977 C 640.281 636.279, 622.586 622.933, 618.638 623.079 C 617.462 623.122, 613.350 624.495, 609.500 626.130" stroke="none" fill="#fbfbfb" fill-rule="evenodd"/></svg>